<svg id="图层_1" data-name="图层 1" xmlns="http://www.w3.org/2000/svg" viewBox="0 0 24 24"><defs><style>.cls-1{fill:#fff;}.cls-2{fill:#99f;}</style></defs><title>房东信息</title><path class="cls-1" d="M22.19,24h0Z"/><path class="cls-2" d="M19,14.39a.61.61,0,0,0-.4-.14.6.6,0,0,0-.39.14l-4.84,4.28a.45.45,0,0,0-.12.56.57.57,0,0,0,.51.3h.52a.26.26,0,0,1,.27.24V23.5a.55.55,0,0,0,.57.5h2a.54.54,0,0,0,.57-.5V20.8a.26.26,0,0,1,.27-.24H19.3a.26.26,0,0,1,.27.24v2.7a.55.55,0,0,0,.57.5h2a.55.55,0,0,0,.57-.5V19.78a.19.19,0,0,1,.07-.17.27.27,0,0,1,.2-.07h.48a.56.56,0,0,0,.52-.31.45.45,0,0,0-.11-.55Z"/><path class="cls-2" d="M12.55,23.5V21.23a2.53,2.53,0,0,1-1.11-1.15,2.47,2.47,0,0,1,.62-2.93l4.81-4.25.07-.05a7.24,7.24,0,1,0-13-4.31,7.18,7.18,0,0,0,3.56,6.32A11.43,11.43,0,0,0,0,24H12.6A2.73,2.73,0,0,1,12.55,23.5Z"/></svg>