<svg id="图层_1" data-name="图层 1" xmlns="http://www.w3.org/2000/svg" viewBox="0 0 24 24"><defs><style>.cls-1{fill:#f99;}</style></defs><title>删除</title><path class="cls-1" d="M16.9,5.3H15.3l-.2-1.4a1.06,1.06,0,0,0-.9-.9H9.8a1.06,1.06,0,0,0-.9.8L8.7,5.3H7.1A1.58,1.58,0,0,0,5.5,6.9v.6h13V6.9A1.58,1.58,0,0,0,16.9,5.3ZM10,4.1h4l.2,1.1H9.8Z"/><path class="cls-1" d="M17.1,8.6H6.9a1,1,0,0,0-1,1.1l.9,10.1A1.13,1.13,0,0,0,7.9,21H16a1.28,1.28,0,0,0,1.2-1.1l.9-10.1A1,1,0,0,0,17.1,8.6ZM9.8,18.8H8.2l-.5-7.9H9.9v7.9Zm3.3,0H10.9V10.9h2.2Zm2.7,0H14.2V10.9h2.2Z"/></svg>