<?xml version="1.0" encoding="utf-8"?>
<!-- Generator: Adobe Illustrator 22.0.1, SVG Export Plug-In . SVG Version: 6.00 Build 0)  -->
<svg version="1.1" id="图层_1" xmlns="http://www.w3.org/2000/svg" xmlns:xlink="http://www.w3.org/1999/xlink" x="0px" y="0px"
	 viewBox="0 0 200 200" style="enable-background:new 0 0 200 200;" xml:space="preserve">
<style type="text/css">
	.st0{fill:#FFFFFF;}
</style>
<path class="st0" d="M182.6,109.5l-83-78.3l-83,78.3l-4.6-4.8L99.6,22l87.5,82.6L182.6,109.5z"/>
<path class="st0" d="M182.6,111.4L99.6,33l-83,78.4l-6.4-6.8l89.5-84.4l89.5,84.4L182.6,111.4z M14,104.7l2.7,2.8l82.9-78.3
	l82.9,78.3l2.7-2.8L99.6,23.9C99.6,23.9,14,104.7,14,104.7z"/>
<path class="st0" d="M160.7,178.3h-48.8v-44.9H88.4v44.9H38v-71.3h6.6v64.6h37.1v-44.9h36.7v44.9H154v-64.6h6.6V178.3z"/>
<path class="st0" d="M162,179.7h-51.6v-44.9H89.8v44.9H36.6v-74H46v64.6h34.4v-44.9h39.5v44.9h32.8v-64.6h9.4V179.7z M113.2,177
	h46.1v-68.6h-3.9v64.6h-38.3v-44.9h-34v44.9H43.3v-64.6h-3.9V177H87v-44.9h26.2V177z"/>
<path class="st0" d="M162.6,62.9H156V40.8h-24.8v-6.6h31.4V62.9z"/>
<path class="st0" d="M164,64.3h-9.4V42.2h-24.8v-9.4H164V64.3z M157.4,61.5h3.9v-26h-28.7v3.9h24.8V61.5z"/>
</svg>
